<svg xmlns="http://www.w3.org/2000/svg" viewBox="0 0 14 14" fill="none">
  <path
    fill="#D17452"
    fill-rule="evenodd"
    d="M6.75.875c0-.345.28-.625.625-.625h.25a2.375 2.375 0 1 1 0 4.75h-7a.625.625 0 1 1 0-1.25h7a1.125 1.125 0 0 0 0-2.25h-.25A.625.625 0 0 1 6.75.875M1 9.625C1 9.28 1.28 9 1.625 9h5.5a2.375 2.375 0 1 1 0 4.75h-.25a.625.625 0 1 1 0-1.25h.25a1.125 1.125 0 0 0 0-2.25h-5.5A.625.625 0 0 1 1 9.625m1.125-3.25a.625.625 0 1 0 0 1.25h9.5a1.125 1.125 0 0 1 0 2.25h-.25a.625.625 0 1 0 0 1.25h.25a2.375 2.375 0 1 0 0-4.75z"
    clip-rule="evenodd"
  />
</svg>
